<svg xmlns="http://www.w3.org/2000/svg" width="72.689" height="100" viewBox="0 0 72.689 100">
  <path id="Icon" d="M44.344-243A36.124,36.124,0,0,0,8-207.047c0,21.418,22.949,50.95,32.4,62.2a5.191,5.191,0,0,0,7.944,0c9.4-11.248,32.347-40.781,32.347-62.2A36.124,36.124,0,0,0,44.344-243Zm0,48.793a12.916,12.916,0,0,1-12.98-12.84,12.915,12.915,0,0,1,12.98-12.84,12.915,12.915,0,0,1,12.98,12.84A12.916,12.916,0,0,1,44.344-194.207Z" transform="translate(-8 243)" fill="#f5f6f9" fill-rule="evenodd"/>
</svg>
