<svg xmlns="http://www.w3.org/2000/svg" width="73.262" height="100" viewBox="0 0 73.262 100">
  <path id="Icon" d="M44.631-243C24.379-243,8-226.924,8-207.047c0,21.418,23.13,50.95,32.654,62.2a5.258,5.258,0,0,0,8.007,0c9.472-11.248,32.6-40.781,32.6-62.2C81.262-226.924,64.883-243,44.631-243Zm0,48.793a12.968,12.968,0,0,1-13.083-12.84,12.968,12.968,0,0,1,13.083-12.84,12.968,12.968,0,0,1,13.083,12.84A12.968,12.968,0,0,1,44.631-194.207Z" transform="translate(-8 243)" fill="#00064a" fill-rule="evenodd"/>
</svg>
