<svg xmlns="http://www.w3.org/2000/svg" width="100" height="101" viewBox="0 0 100 101">
  <g id="Group_3296" data-name="Group 3296" transform="translate(-0.367)">
    <ellipse id="Ellipse_78" data-name="Ellipse 78" cx="50" cy="50.5" rx="50" ry="50.5" transform="translate(0.367)" fill="#fff"/>
    <g id="Component_1" data-name="Component 1" transform="translate(30.086 30.195)">
      <path id="Path_3" data-name="Path 3" d="M20.113,3.576a61.671,61.671,0,0,1,8.045.223,10.365,10.365,0,0,1,3.8.67,7.848,7.848,0,0,1,3.8,3.8,10.365,10.365,0,0,1,.67,3.8c0,2.011.223,2.682.223,8.045a61.671,61.671,0,0,1-.223,8.045,10.365,10.365,0,0,1-.67,3.8,7.848,7.848,0,0,1-3.8,3.8,10.365,10.365,0,0,1-3.8.67c-2.011,0-2.682.223-8.045.223a61.671,61.671,0,0,1-8.045-.223,10.365,10.365,0,0,1-3.8-.67,7.848,7.848,0,0,1-3.8-3.8,10.365,10.365,0,0,1-.67-3.8c0-2.011-.223-2.682-.223-8.045A61.671,61.671,0,0,1,3.8,12.068a10.365,10.365,0,0,1,.67-3.8A8.026,8.026,0,0,1,6.034,6.034,3.778,3.778,0,0,1,8.269,4.47a10.365,10.365,0,0,1,3.8-.67,61.671,61.671,0,0,1,8.045-.223m0-3.576a66.031,66.031,0,0,0-8.269.223,13.8,13.8,0,0,0-4.917.894A8.749,8.749,0,0,0,3.352,3.352,8.749,8.749,0,0,0,1.117,6.928a10.182,10.182,0,0,0-.894,4.917A66.031,66.031,0,0,0,0,20.113a66.031,66.031,0,0,0,.223,8.269A13.8,13.8,0,0,0,1.117,33.3a8.749,8.749,0,0,0,2.235,3.576,8.749,8.749,0,0,0,3.576,2.235A13.8,13.8,0,0,0,11.844,40a66.032,66.032,0,0,0,8.269.223A66.032,66.032,0,0,0,28.382,40a13.8,13.8,0,0,0,4.917-.894,9.376,9.376,0,0,0,5.81-5.81A13.8,13.8,0,0,0,40,28.382c0-2.235.223-2.905.223-8.269A66.032,66.032,0,0,0,40,11.844a13.8,13.8,0,0,0-.894-4.917,8.749,8.749,0,0,0-2.235-3.576A8.749,8.749,0,0,0,33.3,1.117,13.8,13.8,0,0,0,28.382.223,66.031,66.031,0,0,0,20.113,0m0,9.833a10.114,10.114,0,0,0-10.28,10.28,10.28,10.28,0,1,0,10.28-10.28m0,16.984a6.585,6.585,0,0,1-6.7-6.7,6.585,6.585,0,0,1,6.7-6.7,6.585,6.585,0,0,1,6.7,6.7,6.585,6.585,0,0,1-6.7,6.7M30.84,6.928A2.458,2.458,0,1,0,33.3,9.386,2.48,2.48,0,0,0,30.84,6.928" fill="#3a85dc" fill-rule="evenodd"/>
    </g>
  </g>
</svg>
