<svg xmlns="http://www.w3.org/2000/svg" width="100" height="100" viewBox="0 0 100 100">
  <g id="login-icon" transform="translate(-0.239)">
    <rect id="Conntainer" width="100" height="100" transform="translate(0.239 0)" fill="none"/>
    <path id="Log-in" d="M114,110c0-24.756-21.936-44.829-49-44.829S16,85.245,16,110h7.54C23.54,89.052,42.1,72.07,65,72.07s41.46,16.982,41.46,37.93ZM65,58.276c14.569,0,26.386-10.806,26.386-24.14S79.569,10,65,10,38.614,20.806,38.614,34.136,50.431,58.276,65,58.276Zm0-6.9c-10.408,0-18.847-7.715-18.847-17.241S54.591,16.894,65,16.894s18.847,7.72,18.847,17.241S75.409,51.377,65,51.377Z" transform="translate(-15 -10)" fill="#00064a" fill-rule="evenodd"/>
  </g>
</svg>
