<svg xmlns="http://www.w3.org/2000/svg" width="100" height="100" viewBox="0 0 100 100">
  <path id="phone-icon" d="M97.148,70.67,75.272,61.295A4.688,4.688,0,0,0,69.8,62.643L60.116,74.479A72.4,72.4,0,0,1,25.508,39.871l11.836-9.688a4.676,4.676,0,0,0,1.348-5.469L29.317,2.839A4.719,4.719,0,0,0,23.946.124L3.633,4.812A4.688,4.688,0,0,0,0,9.38a90.616,90.616,0,0,0,90.626,90.626,4.688,4.688,0,0,0,4.57-3.633l4.688-20.313a4.744,4.744,0,0,0-2.736-5.391Z" transform="translate(0 -0.007)" fill="#00064a"/>
</svg>
