<svg xmlns="http://www.w3.org/2000/svg" width="100" height="100" viewBox="0 0 100 100">
  <g id="Group_3295" data-name="Group 3295" transform="translate(0.266)">
    <circle id="Ellipse_79" data-name="Ellipse 79" cx="50" cy="50" r="50" transform="translate(-0.266)" fill="#fff"/>
    <g id="Component_1" data-name="Component 1" transform="translate(29.904 29.903)">
      <rect id="Rectangle_393" data-name="Rectangle 393" width="39.836" height="39.836" transform="translate(0)" fill="none"/>
      <path id="Path_2" data-name="Path 2" d="M50.843,34.9C66.165,34.9,74.5,22.278,74.5,11.238V10.111A18.315,18.315,0,0,0,78.557,5.83a18.7,18.7,0,0,1-4.732,1.352A8.766,8.766,0,0,0,77.43,2.676,20.667,20.667,0,0,1,72.248,4.7,8.047,8.047,0,0,0,66.165,2a8.465,8.465,0,0,0-8.337,8.337,4.393,4.393,0,0,0,.225,1.8A23.3,23.3,0,0,1,40.929,3.352,8.629,8.629,0,0,0,39.8,7.633a8.952,8.952,0,0,0,3.605,6.985,7.6,7.6,0,0,1-3.83-1.127h0A8.235,8.235,0,0,0,46.337,21.6a6.946,6.946,0,0,1-2.253.225,3.834,3.834,0,0,1-1.577-.225,8.536,8.536,0,0,0,7.886,5.858,17.012,17.012,0,0,1-10.365,3.605A6.238,6.238,0,0,1,38,30.84,21.267,21.267,0,0,0,50.843,34.9" transform="translate(-38 3.068)" fill="#3a85dc" fill-rule="evenodd"/>
    </g>
  </g>
</svg>
