<svg id="Social_Media_Small_Dark_Twitter" data-name="Social Media / Small / Dark / Twitter" xmlns="http://www.w3.org/2000/svg" width="100" height="100" viewBox="0 0 100 100">
  <circle id="Oval" cx="50" cy="50" r="50" fill="#72f"/>
  <path id="Shape" d="M58.478,5.626a23.937,23.937,0,0,1-6.891,1.887A12.03,12.03,0,0,0,56.863.877a24.017,24.017,0,0,1-7.619,2.911A12.008,12.008,0,0,0,28.8,14.732,34.057,34.057,0,0,1,4.07,2.195,12.011,12.011,0,0,0,7.782,18.213a11.913,11.913,0,0,1-5.434-1.5c0,.051,0,.1,0,.152a12,12,0,0,0,9.625,11.763,12.044,12.044,0,0,1-5.418.208,12.01,12.01,0,0,0,11.207,8.332A24.072,24.072,0,0,1,2.86,42.3,24.159,24.159,0,0,1,0,42.133a33.936,33.936,0,0,0,18.39,5.391c22.068,0,34.136-18.281,34.136-34.137,0-.52-.012-1.038-.035-1.551a24.329,24.329,0,0,0,5.988-6.209Z" transform="translate(25.044 30.11)" fill="#fff"/>
</svg>
