<svg xmlns="http://www.w3.org/2000/svg" width="100" height="100" viewBox="0 0 100 100">
  <g id="twitter-icon" transform="translate(-1494.806 -11374.732)">
    <circle id="Oval" cx="50" cy="50" r="50" transform="translate(1494.806 11474.732) rotate(-90)" fill="#ae06d8"/>
    <path id="twitter" d="M33.333,3.208a13.688,13.688,0,0,1-3.928,1.078A6.869,6.869,0,0,0,32.414.5a13.684,13.684,0,0,1-4.344,1.658A6.819,6.819,0,0,0,23.081,0c-4.417,0-6.664,8.4-6.664,8.4S5.694,5.389,2.322,1.253a6.848,6.848,0,0,0,2.117,9.131,6.826,6.826,0,0,1-3.094-.856,6.847,6.847,0,0,0,5.486,6.792,6.854,6.854,0,0,1-3.089.117,6.848,6.848,0,0,0,6.389,4.747A13.763,13.763,0,0,1,0,24.019a19.342,19.342,0,0,0,10.481,3.072c12.7,0,19.872-10.725,19.439-20.344a13.787,13.787,0,0,0,3.414-3.539Z" transform="matrix(0.966, 0.259, -0.259, 0.966, 1532.492, 11407.335)" fill="#fff"/>
  </g>
</svg>
